<?xml version="1.0" encoding="UTF-8" standalone="no"?>
<svg
   id="Layer_1"
   data-name="Layer 1"
   viewBox="0 0 1024 1024"
   version="1.1"
   xmlns="http://www.w3.org/2000/svg"
   xmlns:svg="http://www.w3.org/2000/svg">
  <path
     class="cls-1"
     d="m 401.32,42.855661 c -9.3,5.99 -19.56,10.17 -29.01,15.96 C 271.94,120.31566 214.78,247.14566 224.25,362.98566 c 1.02,12.54 6.5,25.29 7.95,37.89 -99.16,42.18 -183.58,126.58 -211.51,232.35 -11.46,43.38 -16.1,105.15 -4.59,148.66 3.42,12.94 12.74,41.26 31.12,27.57 11.61,-8.65 -0.75,-29.83 -2.77,-41.62 -23.39,-136.67 129.17,-270.43 262.29,-234.81 42.08,11.26 77.29,38.47 101.14,74.46 4.69,1.12 39.57,-29.33 45.61,-34.1 -16.23,-36.82 5.44,-72.97 41.38,-85.58 l 0.57,-42.67 c -72.64,-11.17 -132.27,-55.93 -161.5,-123.23 -33.13,-76.27 -19.6,-188.9 55.51,-235.989999 6.93,-4.34 28.17,-12.88 31.66,-16.87 7.47,-8.55 3.18,-18.14 -2.66,-26.19 H 608.4 c -2.17,3.61 -6.38,3.93 -8.18,8.22 -8.14,19.34 16.6,24.79 28.61,31.99 78.63,47.149999 95.06,154.329999 63.1,234.999999 -21.32,53.82 -73.06,103.08 -129.26,119.06 -5.3,1.51 -31.27,4.75 -32.62,8.78 0.83,6.17 -1.58,12.63 -1.67,18.28 -0.14,8.46 2.27,15.64 0.66,23.68 27.73,9.93 49.62,35.5 46.51,66.21 -0.77,7.57 -4.97,13.23 -5.6,20.57 l 46.21,32.9 c 30.53,-43.37 80.25,-77.15 134.37,-81.24 85.75,-6.49 178.98,56.96 212.32,134.49 13.67,31.78 23.87,79.96 16.22,113.67 -2.43,10.7 -16.55,37.29 4.18,38.57 11.72,0.72 15.05,-4.29 18.99,-14.01 20.98,-51.61 12.41,-134.5 -5.31,-186.53 -32.78,-96.22 -110.58,-172.49 -204.08,-210.49 -1.76,-2.78 4.88,-23.86 5.51,-29.02 11.83,-96.44 -22.41,-196.44 -88.52,-266.72 -19.06,-20.249999 -66.9,-60.109999 -94.3,-63.409999 z m 96.81,265.669999 c -40.91,1.05 -81.05,15.95 -116.78,34.51 15.65,19.23 32.58,36.03 53.86,49.03 5.87,-2.52 11.13,-5.71 17.17,-8.03 34.42,-13.22 69.05,-16.5 104.61,-5.34 11.08,3.48 21.09,9.11 31.81,13.36 19.91,-12.82 37.7,-29.35 52.27,-47.86 0.57,-3.65 -16.54,-10.46 -20.27,-12.1 -38.39,-16.88 -80.54,-24.65 -122.66,-23.57 z m -172.73,265.04 c -21.73,-10.37 -45.22,-18.79 -69.76,-17.34 1.15,54.66 22.72,108.16 57.17,150.42 17.56,21.55 46.73,46.65 70.92,60.38 2.05,1.17 5.89,3.71 8.14,3.03 10.76,-20.63 15.83,-44.04 13.45,-67.36 -11.91,-11.44 -26.24,-20.24 -37.57,-32.36 -24.46,-26.16 -41.71,-60.4 -42.34,-96.77 z m 442.96,-17.34 c -23.81,-1.05 -46.85,6.48 -68.33,15.92 -3.85,52.79 -36.34,103.43 -83.04,128.21 2.41,11.32 1.06,23.13 3.17,34.52 0.89,4.77 9.59,31.41 12.49,33.25 2.02,1.28 14.99,-6.54 17.63,-8.2 45.93,-28.9 84.49,-73.79 103.47,-124.85 9.16,-24.66 15.08,-52.47 14.61,-78.84 z m -655.05,351.3 c -14.24,14.23 4.87,25.67 16.19,32.07 64.53,36.49 154.63,48.13 226.12,29.49 57.64,-15.03 113.48,-48.44 155.15,-90.46 30.13,27.85 62.52,52.21 99.98,69.57 80.18,37.15 166.49,38.55 248.99,6.6 11.63,-4.51 45.27,-18.81 52.22,-27.72 7.19,-9.23 -1.09,-23.98 -11.22,-23.91 -8.13,0.06 -32.23,14.22 -42.4,17.42 -39.56,12.44 -86.26,8.09 -124.23,-7.15 -97.73,-39.22 -169.22,-150.36 -142.42,-256.25 1.42,-5.62 7.89,-16.99 6.5,-21.53 -1.72,-5.64 -40.79,-27.62 -46.4,-35.09 -25.72,16.84 -53.72,19.05 -79.15,0.45 l -46.32,35.02 c 10.58,33.92 14.55,63.35 8.88,98.76 -19.43,121.36 -158.68,233.36 -281.69,180.81 -12.02,-5.13 -27.69,-20.59 -40.2,-8.09 z"
     id="path1" />
  <path
     d="m 615.54,42.855661 c 27.4,3.3 75.24,43.16 94.3,63.419999 66.11,70.28 100.35,170.28 88.52,266.72 -0.63,5.16 -7.28,26.24 -5.51,29.02 93.5,38 171.3,114.27 204.08,210.49 17.72,52.03 26.29,134.92 5.31,186.53 -3.95,9.71 -7.28,14.73 -18.99,14.01 -20.73,-1.28 -6.61,-27.87 -4.18,-38.57 7.65,-33.72 -2.55,-81.89 -16.22,-113.67 -33.34,-77.53 -126.57,-140.98 -212.32,-134.49 -54.12,4.09 -103.84,37.87 -134.37,81.24 l -46.21,-32.9 c 0.62,-7.34 4.83,-12.99 5.6,-20.57 3.11,-30.71 -18.78,-56.28 -46.51,-66.21 1.62,-8.04 -0.8,-15.22 -0.66,-23.68 0.1,-5.65 2.5,-12.11 1.67,-18.28 1.35,-4.04 27.33,-7.27 32.62,-8.78 56.2,-15.99 107.94,-65.24 129.26,-119.06 31.96,-80.67 15.53,-187.85 -63.1,-234.999999 -12.02,-7.21 -36.76,-12.65 -28.61,-31.99 1.8,-4.28 6.01,-4.6 8.18,-8.22 2.33,0.18 4.85,-0.28 7.14,0 z"
     id="path2" />
  <path
     d="m 418.45,42.855661 c 5.84,8.05 10.13,17.64 2.66,26.19 -3.49,3.99 -24.73,12.53 -31.66,16.87 -75.11,47.089999 -88.65,159.719999 -55.51,235.989999 29.24,67.3 88.86,112.06 161.5,123.23 l -0.57,42.67 c -35.94,12.61 -57.61,48.76 -41.38,85.58 -6.04,4.76 -40.92,35.22 -45.61,34.1 -23.85,-35.99 -59.06,-63.2 -101.14,-74.46 -133.13,-35.62 -285.68,98.14 -262.29,234.81 2.02,11.79 14.37,32.97 2.77,41.62 -18.38,13.69 -27.7,-14.62 -31.12,-27.57 -11.51,-43.51 -6.87,-105.29 4.59,-148.66 27.94,-105.77 112.35,-190.17 211.51,-232.35 -1.45,-12.59 -6.93,-25.34 -7.95,-37.89 -9.46,-115.84 47.69,-242.67 148.06,-304.169999 9.45,-5.79 19.71,-9.97 29.01,-15.96 h 17.14 z"
     id="path3" />
  <path
     d="m 113.31,907.52566 c 12.51,-12.5 28.18,2.96 40.2,8.09 123.01,52.55 262.26,-59.45 281.69,-180.81 5.67,-35.4 1.7,-64.84 -8.88,-98.76 l 46.32,-35.02 c 25.43,18.59 53.43,16.38 79.15,-0.45 5.61,7.47 44.67,29.44 46.4,35.09 1.39,4.54 -5.08,15.9 -6.5,21.53 -26.8,105.88 44.69,217.03 142.42,256.25 37.97,15.24 84.67,19.59 124.23,7.15 10.17,-3.2 34.28,-17.36 42.4,-17.42 10.13,-0.07 18.41,14.68 11.22,23.91 -6.94,8.91 -40.58,23.21 -52.22,27.72 -82.5,31.95 -168.82,30.55 -248.99,-6.6 -37.46,-17.36 -69.85,-41.72 -99.98,-69.57 -41.66,42.02 -97.51,75.43 -155.15,90.46 -71.49,18.64 -161.6,7 -226.12,-29.49 -11.32,-6.4 -30.43,-17.84 -16.19,-32.07 z"
     id="path4" />
  <path
     d="m 498.13,308.52566 c 42.12,-1.08 84.27,6.68 122.66,23.57 3.73,1.64 20.84,8.45 20.27,12.1 -14.57,18.51 -32.36,35.04 -52.27,47.86 -10.72,-4.25 -20.73,-9.88 -31.81,-13.36 -35.56,-11.16 -70.19,-7.88 -104.61,5.34 -6.04,2.32 -11.29,5.51 -17.17,8.03 -21.28,-13 -38.21,-29.8 -53.86,-49.03 35.73,-18.56 75.87,-33.46 116.78,-34.51 z"
     id="path5" />
  <path
     d="m 768.36,556.22566 c 0.48,26.36 -5.44,54.18 -14.61,78.84 -18.98,51.07 -57.54,95.95 -103.47,124.85 -2.64,1.66 -15.61,9.48 -17.63,8.2 -2.9,-1.84 -11.61,-28.48 -12.49,-33.25 -2.12,-11.39 -0.76,-23.19 -3.17,-34.52 46.7,-24.78 79.19,-75.41 83.04,-128.21 21.48,-9.44 44.52,-16.96 68.33,-15.92 z"
     id="path6" />
  <path
     d="m 325.4,573.56566 c 0.63,36.37 17.87,70.62 42.34,96.77 11.33,12.12 25.66,20.92 37.57,32.36 2.38,23.32 -2.69,46.73 -13.45,67.36 -2.25,0.68 -6.08,-1.87 -8.14,-3.03 -24.19,-13.73 -53.35,-38.84 -70.92,-60.38 -34.45,-42.26 -56.02,-95.76 -57.17,-150.42 24.54,-1.45 48.03,6.97 69.76,17.34 z"
     id="path7" />
</svg>
