<?xml version="1.0" encoding="UTF-8"?>
<svg width="24" height="24" viewBox="0 0 24 24" xmlns="http://www.w3.org/2000/svg">
  <path d="M12 2C9.38 2 7.125 3.28 5.825 5.27C7.825 5.74 9.33 7.34 9.67 9.37C10.85 9.13 12.07 9 13.31 9C14.86 9 16.37 9.21 17.82 9.61C17.93 8.78 18 7.94 18 7.09C18 4.27 15.73 2 12.91 2H12zM4.27 7.09C4.27 8.13 4.45 9.14 4.79 10.07C6.79 10.54 8.29 12.14 8.63 14.17C9.81 13.93 11.03 13.8 12.27 13.8C13.82 13.8 15.33 14.01 16.78 14.41C16.89 13.58 16.96 12.74 16.96 11.89C16.96 9.07 14.69 6.8 11.87 6.8H11C8.38 6.8 6.125 8.08 4.825 10.07C4.45 9.14 4.27 8.13 4.27 7.09zM3 12.91C3 13.95 3.18 14.96 3.52 15.89C5.52 16.36 7.02 17.96 7.36 19.99C8.54 19.75 9.76 19.62 11 19.62C12.55 19.62 14.06 19.83 15.51 20.23C15.62 19.4 15.69 18.56 15.69 17.71C15.69 14.89 13.42 12.62 10.6 12.62H9.73C7.11 12.62 4.855 13.9 3.555 15.89C3.175 14.96 3 13.95 3 12.91z"/>
</svg> 