<svg width="24" height="24" viewBox="0 0 24 24" xmlns="http://www.w3.org/2000/svg">
  <path
    d="M12 3.5c-.8 0-1.5.3-2 .8-.5-.5-1.2-.8-2-.8-1.7 0-3 1.3-3 3 0 .8.3 1.5.8 2C4.7 9.6 4 11.2 4 13c0 4.4 3.6 8 8 8s8-3.6 8-8c0-1.8-.7-3.4-1.8-4.5.5-.5.8-1.2.8-2 0-1.7-1.3-3-3-3-.8 0-1.5.3-2 .8-.5-.5-1.2-.8-2-.8zm0 2c.6 0 1 .4 1 1s-.4 1-1 1-1-.4-1-1 .4-1 1-1zM8 5.5c.6 0 1 .4 1 1s-.4 1-1 1-1-.4-1-1 .4-1 1-1zm8 0c.6 0 1 .4 1 1s-.4 1-1 1-1-.4-1-1 .4-1 1-1zM12 8c2.8 0 5 2.2 5 5s-2.2 5-5 5-5-2.2-5-5 2.2-5 5-5zm-2 3c-.3 0-.5.2-.5.5s.2.5.5.5.5-.2.5-.5-.2-.5-.5-.5zm4 0c-.3 0-.5.2-.5.5s.2.5.5.5.5-.2.5-.5-.2-.5-.5-.5zm-3 2c-.3 0-.5.2-.5.5s.2.5.5.5.5-.2.5-.5-.2-.5-.5-.5zm2 0c-.3 0-.5.2-.5.5s.2.5.5.5.5-.2.5-.5-.2-.5-.5-.5z" />
</svg> 