<?xml version="1.0" encoding="UTF-8" standalone="no"?>
<svg
   id="Layer_1"
   version="1.1"
   viewBox="0 0 1024 1024"
   xmlns="http://www.w3.org/2000/svg"
   xmlns:svg="http://www.w3.org/2000/svg">
   <path
      d="m 646,0 c -3.22441,87.39925 -9.93625,180.72242 -66.98,252.02 -10.73,11.6 -24.95,23.65 -38.86,8.83 -13.44,-14.31 9.14,-19.98 11.82,-32.85 -63.99878,39.38476 -167.87115,60.51048 -180.1,39.11 C 366.83,258.29 354.8,87.55 351.01,12 c -11.24843,8.880336 -34.93863,253.32995 -68.28,255.34 -8.65,0.52 -17.45,-5.69 -18.67,-14.52 -2.25785,-16.35631 29.66442,-146.55977 1.85,-73.94 -5.39,15.58 -6.28,28.55 -15.35,44.56 -15.84,27.94 -29.07,35.99 -58.61,47.48 -45.23,17.59 -97.59,32.03 -144.34,47.66 -31.379961,15.13429 -22.931445,92.49822 -27.51,126.52 -0.77,5.74 9.05,2.17 11.53,1.49 15.88,-4.32 26.13,-14.59 32.35,-29.65 -3.3,0.51 -40.34,-4.37 -31.99,-12.97 0.69,-0.71 15.03,-2.05 19.43,-3.59 36.95,-12.95 49.4,-46.01 77.65,-66.35 49.63,-35.74 126.48,-37.36 180.9,-11.04 3.79,1.83 31.06,18.79 32.17,20.34 2.98,4.18 10.76,35.57 7.85,38.63 -21.54,-5.86 -38.06,-18.95 -60.39,-24.59 -89.26,-22.52 -215.15,28.06 -209.68,133.69 0.45,8.67 10.45,44.9 9.16,46.91 -1.5,2.34 -3.46,2.25 -5.96,1.97 -21.82,-2.48 -39.22,-54.42 -37.11,-73.99 -9.79,1.05 -17.11,-0.37 -26,-3.98 1.622822,27.73774 -16.514013,63.98989 -11.86,92.71 1,3.04 9.93,4.67 13.94,8.18 36.007994,31.55757 6.648116,167.49205 125.88,266.12 65.29,54.01 216.36,131.7 297.61,156.39 110.05,33.45 234.39,-39.23 328.63,-92.2 281.6531,-158.31407 153.84198,-255.5395 228.74,-333.26 3.61,-3.74 12.09,-7.29 12.77,-9.21 3.72,-10.48 -6.11,-77.81 -9.75,-88.74 -5.45,3.9 -25.45,4.38 -27.36,10.52 -2.24,7.21 -1.37,17.02 -4.55,26.56 -4.21,12.67 -17.72,34.28 -30.13,39.87 C 928.19,546 938.6,526.76 940.24,519.22 969.11,386.43 818.09,323.5 710.59,365.57 c -5.24,2.05 -29.86,16.12 -31.63,15.98 -8.8549,-3.04593 0.58634,-32.9275 2.88,-38.73 2.03,-3.12 25.76,-16.8 30.79,-19.21 56.65,-27.12 130.05,-26.43 182.27,10.41 28.77,20.3 36.98,49.66 75.1,64.9 4.78,1.91 22.14,5.06 23.96,7.06 6.8139,7.5247 -27.68562,8.31131 -35.98,10.96 10.25,18 26.7,31.95 47.98,33 L 997.09,325.83 C 947.5,312.41 896.84,289.32 859.94,252.98 786.07831,180.22985 764.07939,79.623173 759.97,-0.05 h 264 v 724 c -6.78,1.83 -20.41,-5.56 -25.03,-0.02 -2.66,3.19 -4.94,17.8 -6.9,23.09 -34.51124,93.33605 -145.65349,162.23868 -237.96,205.11 l 1.89,71.82 h -486 l -0.32,-69.68 C 2.0514725,818.00614 43.887261,733.07739 21.84,714.1 19.91,712.43 3.6,716.41 -0.03,717.96 V 0 h 646 z"
      id="path1"
   />
   <path
      d="m 334.76,417.27 c 43.54,77.9 -5.38,198.78 -105.71,186.66 -50.03,-6.04 -81.6,-43.57 -94.17,-89.81 C 99.15,382.8 260.99,285.28 334.76,417.27 Z m -135.84,18.8 c 12.6363,16.86631 37.99137,-4.6869 24.87004,-23.80003 C 210.66871,393.15684 186.2837,419.20369 198.92,436.07 Z m -2.58,126.59 c 26.26,43.12 109.54,26.87 101.48,-31.49 -7.53619,-54.52909 -140.27228,-37.09473 -101.48,31.49 z"
      id="path2"
   />
   <path
      d="m 862.7,393.31 c 10.6,12.47 16.18,20.65 22.26,36.73 8.44,22.3 14.8,52.22 8.97,76.56 -0.93,3.88 -7.2,20.54 -9.57,26.76 C 842.61,642.75 693.63,619.11 674.5,504.49 655.73,391.99 782.3,298.68 862.69,393.3 Z m -135.28763,33.89966 c -10.24622,15.33439 11.86459,28.33286 20.61019,15.39019 8.74561,-12.94268 -10.36397,-30.72458 -20.61019,-15.39019 z M 794.97,500.04 c -23.79,-2.25 -56.92,-0.76 -66.35,25.58 -17.49,48.84 53.19,77.59 87.43,51.43 26.64157,-27.40605 13.71907,-69.23809 -21.08,-77.01 z"
      id="path3"
   />
   <path
      d="M406.28,782.29c9.63-4,13.34,3.67,17.32,5.54,17.9,8.44,53.86-2.88,75.31-3.92,30.92-1.51,59.06,8.43,86.15,7.76,11.08-.27,23.28-17.53,31.85-7.58,12.31,14.3-14.02,24.79-25.94,25.88-28.36,2.58-61.31-7.53-92.06-6.06-23.31,1.11-73.86,16.21-90.61-3.19-5.17-5.98-5.51-11.34-2.01-18.43Z"
      id="path4" />
   <path
      d="M505.38,608.39c27.92-8.54,25.52,36.9,11.22,41.19-26.99,8.09-20.9-38.23-11.22-41.19Z"
      id="path5" />
</svg>