<?xml version="1.0" encoding="UTF-8" standalone="no"?>
<svg
   id="Layer_1"
   data-name="Layer 1"
   viewBox="0 0 1024 1024"
   version="1.1"
   sodipodi:docname="yipyap.svg"
   inkscape:export-filename="yipyap.png"
   inkscape:export-xdpi="114.16589"
   inkscape:export-ydpi="114.16589"
   inkscape:version="1.4 (86a8ad7, 2024-10-11)"
   width="1024"
   height="1024"
   xmlns:inkscape="http://www.inkscape.org/namespaces/inkscape"
   xmlns:sodipodi="http://sodipodi.sourceforge.net/DTD/sodipodi-0.dtd"
   xmlns="http://www.w3.org/2000/svg"
   xmlns:svg="http://www.w3.org/2000/svg">
  <defs
     id="defs3" />
  <sodipodi:namedview
     id="namedview3"
     pagecolor="#ffffff"
     bordercolor="#000000"
     borderopacity="0.25"
     inkscape:showpageshadow="2"
     inkscape:pageopacity="0.0"
     inkscape:pagecheckerboard="false"
     inkscape:deskcolor="#d1d1d1"
     inkscape:zoom="0.50060395"
     inkscape:cx="374.54758"
     inkscape:cy="373.54879"
     inkscape:window-width="1920"
     inkscape:window-height="1057"
     inkscape:window-x="-8"
     inkscape:window-y="-8"
     inkscape:window-maximized="1"
     inkscape:current-layer="Layer_1"
     showborder="true"
     inkscape:antialias-rendering="true" />
  <path
     d="m 36.900059,156.09047 c -5.21,-45.01 20.41,-77.919997 66.920001,-59.729997 49.79,19.469997 98.16,50.509997 145.46,75.329997 l 2.31,2.78 c 49.02,27.38 91.7,63.91 134.37,99.98 80.57,-31.72 171.78,-29.88 252.67,-0.11 20.31,-15.58 38.86,-34.14 59.22,-49.92 56.88,-44.09 126.68,-83.95 191.96,-114.38 11.59,-5.4 36.75,-18.359997 48.17,-19.409997 36.23,-3.33 53.18,30.409997 49.49,62.429997 -3.78,32.77 -5.12,62.79 -10.13,94.85 -5.73,36.6 -15.61,76.18 -26.45,111.62 -12.02,39.3 -28.3,76.69 -44.98,114.1 14.8,20.55 30.83,40.25 45.46,60.92 21.87,30.91 45.71,66.09 57.16004,102.49 9.25,29.39 2.68,52.78 -12.49004,79.41 -25.22,44.27 -116.37,89.83 -162.27,114.18 -63.8,33.85 -133.63,69.93 -200.19,97.51 -58.06,24.06 -117.79,27.09 -180.26,19.62 -37.31,-4.46 -69.27,-20.74 -102.88,-36.63 -65.26,-30.84 -134.71,-66.39 -197.95,-101.19 -58.090001,-31.96 -153.32000085,-81.52 -139.910001,-161.95 5.91,-35.43 44.9,-95.04 66.34,-124.94 5.13,-7.16 38.480001,-47.84 38.470001,-52.03 -11.59,-28.82 -25.950001,-56.52 -36.290001,-85.88 -18.09,-51.35 -25.56,-100.09 -35.55,-152.86 m 527.050001,524.99 c 12.2,9.07 15.15,17.58 13.72,33.01 -2.05,22.22 -27.32,41.23 -43.11,54.66 13.62,11.82 33.26,14.8 50.63,10.38 90.4,-45.1 183.61,-88.44 271.28,-138.6 13.43,-7.68 54.58,-30.49 61.23,-42.32 2.64,-4.71 3.16,-13.79 1.97,-19 -0.9,-3.96 -14.03,-24.76 -17.23,-30.23 -21.02,-35.93 -47.22,-72.63 -73.11,-105.23 -11.21,-14.11 -32.43,-28.04 -24.97,-48.06 8.02,-21.51 23.41,-45.56 32.86,-67.81 20.51,-48.27 41.46,-113.05 48.12,-164.74 1.47,-11.39 0.55,-23.69 2.3,-35.13 -2.06,-2.73 -2.62,-0.87 -4.41,-0.06 -68.88,31.14 -142.88,84.22 -199.14,134.53 -10.72,9.59 -24.49,28.72 -38.48,32.01 -13.08,3.07 -44.07,-14.04 -57.93,-18.97 -55.72,-19.83 -120.31,-18.86 -175.75,1.01 -11.79,4.22 -39.94,18.73 -50.59,18.24 -16.31,-0.74 -33.79,-24.47 -45.39,-35.16 -57.57,-53.07 -123.11,-96.91 -193.45,-131.58 -1.67,-0.82 -2.63,-2.08 -5.04,-1.42 1.25,24.31 6.58,47.36 10.15,71.09 16.42,69.63 42.54,135.99 75.31,199.38 2.88,7.52 -0.55,14.03 -3.49,20.76 -34.13,36.45 -66.78,74.54 -92.29,117.68 -4.76,8.05 -20.830001,35.05 -22.460001,42.25 -3.87,17.1 8.490001,27.21 21.080001,35.85 37.64,25.83 88.75,49.78 129.8,71.55 41.97,22.26 84.35,44.69 126.88,65.84 15.57,7.75 53.42,28.65 68.01,29.79 14.96,1.16 28.86,-1.16 40.8,-10.62 0.6,-2.57 -13.18,-11.88 -15.84,-14.34 -7.89,-7.31 -24.63,-24.73 -26.92,-34.92 -2.29,-10.19 1.51,-19.56 2.55,-29.49 12.34,-15.96 32.63,-22.84 52.37,-24.12 24.98,-1.62 59.89,-1.55 80.53,13.79 z"
     id="path1"
     sodipodi:nodetypes="cccccccccccccccccccccccccccccccccccccccccccccccccccccccccccscccc"
     style="fill:#000000;stroke:none" />
  <path
     d="m 646.11006,621.95047 c -45.78,-46.68 16.34,-117 71.84,-82.64 67.16,41.58 -13.57,142.05 -71.84,82.64 z"
     id="path2" />
  <path
     d="m 375.76006,544.29047 c 54.31,45.97 -21.62,131.28 -76.56,79.39 -51.59,-48.73 21.13,-126.3 76.56,-79.39 z"
     id="path3" />
</svg>
