<?xml version="1.0" encoding="UTF-8" standalone="no"?>
<svg
   id="Layer_1"
   data-name="Layer 1"
   viewBox="0 0 1024 1024"
   version="1.1"
   xmlns="http://www.w3.org/2000/svg"
   xmlns:svg="http://www.w3.org/2000/svg">
   <path
      class="cls-1"
      d="m 598.69,114.7 c -10.77,10.04 -13.94,29.12 -6.39,42.01 4.07,6.95 12.71,10.33 15.65,18.35 3.45,9.41 6.93,45.16 5.15,55.05 -6.6,36.56 -26.49,36.03 -50.04,55.96 -61.39,51.96 -49.13,114.53 -69.64,182.36 -18.52,61.26 -57.96,121.91 -106.48,163.52 -33.07,28.36 -68.38,41.48 -93.77,80.23 -6.27,9.56 -10.86,22.32 -17.17,30.83 -10.29,13.87 -32.78,27.94 -45.02,42.98 -40.62,49.88 -0.89,114.39 59.81,107.81 19.3,-2.09 53.13,-19.54 68.21,-19.54 8.55,0 35.23,9.75 48.29,11.47 185.58,24.4 348.48,-195.78 390.15,-355.28 21.51,-82.36 23.04,-185.77 -47.41,-245.46 -8.97,-7.6 -22.63,-13.44 -29.9,-20.1 -7.83,-7.18 -20.36,-48.7 -23.14,-60.86 -5.37,-23.46 -2.67,-51.88 -11.47,-72.53 -6.35,-14.92 -17.84,-25.71 -34.5,-27.5 -16.17,-1.73 -39.77,-0.99 -52.32,10.71 z"
      id="path1"
   />
   <g
      id="g4">
      <path
         d="m 598.69,114.7 c 12.55,-11.7 36.15,-12.44 52.32,-10.71 16.67,1.79 28.15,12.58 34.5,27.5 8.8,20.65 6.1,49.07 11.47,72.53 2.78,12.16 15.31,53.69 23.14,60.86 7.27,6.66 20.93,12.5 29.9,20.1 70.44,59.68 68.92,163.09 47.41,245.46 -41.67,159.5 -204.57,379.69 -390.15,355.28 -13.06,-1.72 -39.73,-11.47 -48.29,-11.47 -15.09,0 -48.91,17.45 -68.21,19.54 -60.71,6.57 -100.43,-57.93 -59.81,-107.81 12.24,-15.04 34.74,-29.11 45.02,-42.98 6.31,-8.5 10.9,-21.27 17.17,-30.83 25.4,-38.75 60.7,-51.87 93.77,-80.23 48.53,-41.61 87.96,-102.26 106.48,-163.52 20.51,-67.83 8.24,-130.4 69.64,-182.36 23.54,-19.92 43.44,-19.4 50.04,-55.96 1.79,-9.89 -1.7,-45.64 -5.15,-55.05 -2.94,-8.03 -11.57,-11.4 -15.65,-18.35 -7.55,-12.88 -4.38,-31.96 6.39,-42.01 z m 80.99,173.62 h -40.36 c -12.6,21.73 -37.27,28.97 -53.26,46.74 -31.81,35.35 -27.84,76.43 -36.66,119.34 -17.57,85.52 -75.8,174.35 -144.46,227.54 -26.73,20.71 -62.56,35.59 -74.07,70.11 l 20.12,13.8 C 472.13,713.54 570.99,592.57 601,464 c 5.68,-24.34 5.73,-51.86 11.55,-74.45 7.79,-30.23 44.3,-27.44 48.96,-0.08 3.65,21.43 -9.75,80.12 -16.08,102.96 -37.01,133.49 -138.41,257.15 -265.31,313.75 0.57,27.85 8.26,28.5 33.12,31.57 123.03,15.19 238.21,-112.11 291.1,-210.41 43.68,-81.19 97.53,-233.83 11.68,-304.37 -13.02,-10.7 -31.81,-15.9 -36.34,-34.65 z"
         id="path2"
      />
      <path
         class="cls-1"
         d="M679.68,288.32c4.53,18.75,23.32,23.95,36.34,34.65,85.85,70.54,32,223.18-11.68,304.37-52.88,98.3-168.07,225.59-291.1,210.41-24.86-3.07-32.55-3.72-33.12-31.57,126.9-56.6,228.29-180.26,265.31-313.75,6.33-22.84,19.73-81.53,16.08-102.96-4.66-27.36-41.17-30.15-48.96.08-5.82,22.59-5.87,50.12-11.55,74.45-30.01,128.57-128.87,249.54-250.01,301.85l-20.12-13.8c11.52-34.53,47.34-49.41,74.07-70.11,68.66-53.18,126.9-142.02,144.46-227.54,8.82-42.91,4.84-84,36.66-119.34,15.99-17.77,40.66-25.01,53.26-46.74h40.36Z"
         id="path3" />
   </g>
</svg>