<svg width="24" height="24" viewBox="0 0 24 24" xmlns="http://www.w3.org/2000/svg">
  <path
    d="M12 2C7.58172 2 4 5.58172 4 10V19C4 19.7428 4.37562 20.4045 4.97487 20.7578C5.57413 21.1111 6.31043 21.1111 6.90969 20.7578L9.27438 19.2422C9.70091 18.9639 10.2991 18.9639 10.7256 19.2422L12 20L13.2744 19.2422C13.7009 18.9639 14.2991 18.9639 14.7256 19.2422L17.0903 20.7578C17.6896 21.1111 18.4259 21.1111 19.0251 20.7578C19.6244 20.4045 20 19.7428 20 19V10C20 5.58172 16.4183 2 12 2ZM9 10C9.55228 10 10 10.4477 10 11C10 11.5523 9.55228 12 9 12C8.44772 12 8 11.5523 8 11C8 10.4477 8.44772 10 9 10ZM15 10C15.5523 10 16 10.4477 16 11C16 11.5523 15.5523 12 15 12C14.4477 12 14 11.5523 14 11C14 10.4477 14.4477 10 15 10Z" />
</svg>