<?xml version="1.0" encoding="UTF-8" standalone="no"?>
<svg
   id="Layer_1"
   data-name="Layer 1"
   viewBox="0 0 1024 1024"
   version="1.1"
   xmlns="http://www.w3.org/2000/svg"
   xmlns:svg="http://www.w3.org/2000/svg">
   <path
      class="cls-1"
      d="m 687.59,160.59 c -67.66,5.14 -135,39.79 -178.39,91.61 -37.87,45.22 -46.02,104.16 -113.1,116.9 -20.3,3.85 -41.79,4.03 -62.47,7.53 -120.3,20.35 -191.89,109.17 -234.57,217.43 -31.4,79.65 8.1,116.3 64.91,164.97 98.71,84.56 234.81,103.83 344.66,26.6 41.91,-29.47 55.42,-59.19 86.35,-95.65 40.38,-47.61 72.17,-37.78 127.09,-48.91 131.68,-26.68 198.07,-127.69 209.92,-256.08 7.02,-76.01 2.2,-108.1 -55.96,-158.02 -53.22,-45.67 -117.1,-71.8 -188.44,-66.38 z"
      id="path1"
   />
   <g
      id="g4">
      <path
         d="M687.59,160.59c71.33-5.42,135.22,20.71,188.44,66.38,58.16,49.91,62.98,82.01,55.96,158.02-11.85,128.39-78.24,229.39-209.92,256.08-54.93,11.13-86.71,1.3-127.09,48.91-30.93,36.46-44.43,66.19-86.35,95.65-109.85,77.23-245.95,57.96-344.66-26.6-56.81-48.66-96.3-85.32-64.91-164.97,42.68-108.26,114.27-197.08,234.57-217.43,20.68-3.5,42.17-3.67,62.47-7.53,67.08-12.74,75.23-71.68,113.1-116.9,43.4-51.82,110.73-86.47,178.39-91.61ZM685.6,226.6c-36.15,3.25-70.56,18.79-98.54,41.46-54.01,43.74-61.42,111-125.71,146.29-47.8,26.23-98.87,17.42-148.87,33.13-90.2,28.35-134.45,122.05-163.46,204.59,39.6,38.77,80.3,84.96,133.94,103.97,57.01,20.2,127.59,16.53,178.85-17.22,54.1-35.61,73.23-98.95,128.84-131.16,53.97-31.26,118.78-18.23,176.69-51.31,90.45-51.69,103.52-155.33,98.24-250.93-50.92-50.64-104.72-85.58-179.99-78.81Z"
         id="path2" />
      <path
         class="cls-1"
         d="M685.6,226.6c75.27-6.77,129.07,28.18,179.99,78.81,5.28,95.6-7.79,199.24-98.24,250.93-57.9,33.08-122.72,20.05-176.69,51.31-55.61,32.21-74.74,95.55-128.84,131.16-51.26,33.75-121.84,37.42-178.85,17.22-53.64-19.01-94.34-65.2-133.94-103.97,29.01-82.55,73.26-176.25,163.46-204.59,50-15.71,101.06-6.9,148.87-33.13,64.3-35.28,71.71-102.55,125.71-146.29,27.98-22.66,62.39-38.2,98.54-41.46ZM562,496.02c48.4-1.33,87.74-21.68,125.83-49.19s95.11-70.21,128.2-101.8c11.39-10.87,16.12-14.68,14.01-32.08-1.81-14.96-16.37-25.48-31.04-25.11-14.44.37-25.84,11.32-36.79,19.37-51.14,37.58-134.98,122.23-197.13,126.87-20.84,1.56-50.27-7.23-62.19,15.81-9.17,17.71-2.42,32-.88,50.11-35.6.7-71.58,12.78-101.85,31.16-38.9,23.63-54.02,41.08-101.32,54.68-32.11,9.23-83.31,14.19-111.32,26.68-33.92,15.12-16.69,64.73,19.45,59.48,47.3-13.23,100.09-20.33,145.54-38.5,44.05-17.62,77.32-55.19,122.65-67.35,41.26-11.07,108.45-2.84,86.85-70.13Z"
         id="path3" />
      <path
         d="M562,496.02c21.6,67.29-45.59,59.06-86.85,70.13-45.33,12.16-78.6,49.73-122.65,67.35-45.44,18.17-98.24,25.27-145.54,38.5-36.14,5.25-53.36-44.36-19.45-59.48,28.01-12.49,79.21-17.45,111.32-26.68,47.3-13.6,62.41-31.06,101.32-54.68,30.27-18.38,66.25-30.46,101.85-31.16-1.55-18.11-8.3-32.4.88-50.11,11.93-23.04,41.35-14.25,62.19-15.81,62.15-4.64,145.99-89.3,197.13-126.87,10.95-8.05,22.35-19,36.79-19.37,14.67-.37,29.22,10.15,31.04,25.11,2.11,17.4-2.62,21.21-14.01,32.08-33.09,31.59-90.29,74.42-128.2,101.8s-77.43,47.86-125.83,49.19Z"
         id="path4" />
   </g>
</svg>